# xmcd
#
# Track frame offsets:
#	150
#	15640
#	32284
#	46999
#	61328
#	80097
#	94870
#	111550
#	128986
#	142410
#	163347
#	179805
#	196448
#	212677
#	231876
#	246996
#	263648
#	274515
#	292645
#	308497
#
# Disc length: 4333 seconds
#
# Revision: 1
# Processed by: cddbd v1.5.2PL0 Copyright (c) Steve Scherf et al.
# Submitted via: EZCDAudioConverter 7.0.0.1
#
DISCID=2810eb14
DTITLE=Dazadi Izpilditaji - Vislabākā Latviešu Šlāgermūzikas Izlase
DYEAR=2014
DGENRE=Country
TTITLE0=GALAKTIKA - No Visas Sirds
TTITLE1=INETA RUDZĪTE - Baltais Zieds
TTITLE2=KASPARS MARKŠEVICS - Meitene ar Zaļām Acīm
TTITLE3=ROBERTS OŠIŅŠ and DAKSTIŅI - Rožu Klēpis
TTITLE4=INGA and NORMUNDS - Likteņa Sūtnis
TTITLE5=BRUĢIS - Kaija
TTITLE6=KASPARS ANTESS - Neskaties Atpakaļ
TTITLE7=TĀLBRAUCĒJI - Stāsti Mākoņos
TTITLE8=LABVĒLĪGAIS TIPS - Eiropa Mūs Nesapratīs
TTITLE9=NORMUNDS RUTULIS and KRISTA TEIVĀNE - Raudāja Māte (Par to)
TTITLE10=EDMUNDS MEDNIS and ĒRIKS KĪNS - Putni
TTITLE11=NORMUNDS RUTULIS - Cāļus Skaita Rudenī
TTITLE12=LIENE ŠOMASE - Ugunskurs
TTITLE13=ANCE KRAUZE - Rasa
TTITLE14=ANDRIS ĒRGLIS - Divreiz
TTITLE15=HARIJS SPANOVSKIS - Trīs Lietas
TTITLE16=NORMUNDS JAKUŠONOKS and DAIGA PETKEVIČA - Viena Tante Teica
TTITLE17=SESTĀ JŪDZE - Pēc Simts Gadiem Piebalgā
TTITLE18=LIENE ŠOMASE and JĀNIS MOISEJS - Neskaties Pulkstenī
TTITLE19=NORMUNDS RUTULIS and ANCE KRAUZE - Lecam pa Vecam
EXTD=
EXTT0=
EXTT1=
EXTT2=
EXTT3=
EXTT4=
EXTT5=
EXTT6=
EXTT7=
EXTT8=
EXTT9=
EXTT10=
EXTT11=
EXTT12=
EXTT13=
EXTT14=
EXTT15=
EXTT16=
EXTT17=
EXTT18=
EXTT19=
PLAYORDER=
